<?xml version="1.0" standalone="no"?>
<!DOCTYPE svg PUBLIC "-//W3C//DTD SVG 20010904//EN"
 "http://www.w3.org/TR/2001/REC-SVG-20010904/DTD/svg10.dtd">
<svg version="1.0" xmlns="http://www.w3.org/2000/svg"
 width="300.000000pt" height="300.000000pt" viewBox="0 0 300.000000 300.000000"
 preserveAspectRatio="xMidYMid meet">
<metadata>
Created by potrace 1.10, written by Peter Selinger 2001-2011
</metadata>
<g transform="translate(0.000000,300.000000) scale(0.100000,-0.100000)"
fill="#000000" stroke="none">
<path d="M1457 2563 c-13 -21 -55 -112 -94 -203 -232 -539 -335 -776 -343
-784 -14 -14 -56 17 -164 122 -107 104 -166 230 -151 322 14 82 84 156 190
200 28 12 61 27 75 34 14 7 66 19 115 26 155 22 178 30 75 24 -193 -10 -334
-57 -415 -138 -58 -58 -79 -118 -73 -204 6 -88 48 -167 137 -264 57 -61 219
-196 225 -186 1 1 16 37 33 78 17 41 119 278 227 527 108 248 196 456 196 462
0 6 5 11 10 11 6 0 10 -5 10 -11 0 -11 56 -142 258 -604 77 -176 179 -410 227
-520 48 -110 133 -306 190 -435 147 -335 177 -411 171 -427 -3 -8 -1 -11 4 -8
6 4 10 121 10 311 0 251 -2 306 -14 310 -12 5 -106 -38 -146 -66 -23 -16 26
-7 74 13 46 20 52 21 59 4 8 -21 5 -364 -4 -378 -10 -16 -9 -18 -41 56 -76
174 -128 306 -117 300 5 -4 9 10 9 29 0 20 4 36 10 36 8 0 237 85 280 104 13
6 15 -34 12 -341 -4 -398 -7 -383 76 -391 29 -2 52 -10 52 -16 0 -8 -86 -11
-304 -11 l-305 0 -61 162 -60 162 46 102 c25 56 63 137 85 180 62 125 69 119
-129 119 l-169 0 -106 274 c-59 151 -107 279 -107 285 0 6 -4 11 -10 11 -5 0
-10 -5 -10 -11 0 -11 -144 -386 -166 -433 -8 -16 -13 -30 -12 -31 23 -18 232
-70 323 -80 33 -4 70 -13 82 -21 17 -10 59 -14 160 -15 76 -1 141 -3 145 -5 3
-2 1 -17 -5 -33 l-11 -30 -179 2 c-98 1 -181 5 -184 10 -3 4 -7 23 -10 40 -2
18 -9 36 -14 42 -5 5 -9 -43 -9 -123 0 -73 4 -132 9 -132 9 0 21 48 21 86 0
49 19 54 191 54 l159 0 -70 -140 c-81 -162 -65 -153 -221 -121 -342 71 -645
214 -894 423 -474 396 -472 782 6 942 92 31 240 56 331 56 40 0 70 5 74 12 5
8 -27 9 -127 4 -218 -12 -279 -25 -404 -86 -141 -69 -229 -167 -261 -292 -13
-50 -14 -71 -4 -131 37 -215 209 -432 516 -650 82 -59 82 -59 49 -45 -16 6
-34 15 -39 20 -20 16 -56 8 -72 -17 -8 -13 -49 -100 -90 -192 -41 -92 -88
-195 -104 -229 -15 -33 -36 -84 -47 -113 l-18 -52 25 -19 c22 -18 43 -20 197
-20 167 0 172 1 201 24 16 14 36 46 45 73 8 26 41 116 72 198 32 83 58 162 59
177 0 16 5 28 10 28 6 0 56 -18 112 -40 90 -35 151 -53 337 -101 21 -6 35 -13
33 -18 -3 -4 16 -7 42 -7 45 1 47 0 44 -24 -2 -14 -8 -29 -12 -35 -18 -22
-132 -247 -122 -241 6 3 38 59 72 124 87 163 112 202 133 202 25 0 22 -18 -24
-132 -23 -57 -50 -128 -59 -158 -18 -54 -19 -55 -54 -52 -20 2 -36 -2 -36 -8
0 -14 65 -13 78 3 6 7 26 55 45 107 55 148 62 163 74 148 6 -7 28 -60 48 -118
53 -146 51 -144 191 -148 76 -3 120 0 129 8 10 8 15 8 20 0 4 -6 14 -8 24 -5
9 4 84 9 166 12 83 2 154 9 160 14 16 16 -9 44 -42 47 -65 7 -65 5 -65 376 1
363 1 359 -54 353 -29 -4 -36 -6 -109 -37 -22 -9 -61 -22 -88 -30 -29 -8 -60
-26 -80 -47 l-33 -34 -22 48 c-12 27 -34 80 -50 118 -26 62 -60 140 -122 280
-10 22 -55 126 -100 230 -45 105 -121 278 -167 385 -47 107 -98 225 -113 261
-49 117 -83 136 -123 72z m93 -938 c21 -55 56 -146 78 -202 41 -106 41 -134 3
-114 -11 7 -21 8 -21 4 0 -4 -5 -2 -12 5 -7 7 -21 12 -33 12 -28 0 -185 46
-197 58 -5 5 10 58 42 138 71 182 82 205 93 201 5 -1 26 -48 47 -102z m-495
-561 l140 -70 -86 -224 -86 -225 -191 0 c-106 0 -192 1 -192 1 0 1 21 46 46
100 25 55 54 119 64 144 10 25 44 104 75 175 31 72 61 140 66 153 5 13 12 22
17 20 4 -2 70 -35 147 -74z"/>
<path d="M1050 1506 c0 -7 119 -71 183 -100 31 -13 57 -23 57 -21 0 5 -225
125 -234 125 -3 0 -6 -2 -6 -4z"/>
<path d="M1945 849 c29 -6 280 -11 260 -4 -5 2 -73 5 -150 7 -77 3 -126 1
-110 -3z"/>
</g>
</svg>
